<svg xmlns="http://www.w3.org/2000/svg" width="157" height="44" viewbox="0 0 157 44" fill="none"><path fill="#4DBC17" d="M18.842 3.158c.605 0 1.19.225 1.639.63l10.591 9.555c.514.464.808 1.124.808 1.817v15.569a2.446 2.446 0 0 1-2.447 2.446H12.622a.612.612 0 0 0-.612.612v5.894a1.161 1.161 0 0 1-1.938.863L.81 32.208A2.447 2.447 0 0 1 0 30.39V14.064c0-.69.292-1.35.804-1.813l9.336-8.46a2.447 2.447 0 0 1 1.643-.633h7.059ZM3.084 13.973a.917.917 0 0 0-.308.686v14.835c0 .507.41.918.917.918h16.334c.507 0 .918-.411.918-.918V14.66a.917.917 0 0 0-.309-.686L12.47 6.727a.917.917 0 0 0-1.218 0l-8.167 7.246Z"/><path fill="#000" d="M148.357 30.273c-1.129 0-2.1-.208-2.912-.624-.792-.436-1.396-1.03-1.812-1.783-.416-.753-.624-1.594-.624-2.525 0-1.565.466-2.724 1.396-3.477.931-.772 2.298-1.158 4.101-1.158h4.902v-.862c0-1.188-.267-2-.802-2.436-.515-.456-1.337-.684-2.466-.684-1.01 0-1.753.159-2.229.476a1.823 1.823 0 0 0-.832 1.307H143.9c.06-.911.347-1.713.862-2.407.515-.693 1.238-1.238 2.169-1.634.951-.396 2.07-.594 3.357-.594 1.288 0 2.407.198 3.358.594.97.396 1.713 1.02 2.228 1.872.535.832.802 1.941.802 3.328v6.269c0 .832.01 1.565.03 2.199.02.613.069 1.218.148 1.812h-2.971c-.059-.456-.109-.842-.148-1.159-.02-.317-.03-.713-.03-1.188-.376.732-1.03 1.366-1.961 1.901-.911.515-2.04.773-3.387.773Zm.891-2.853c.753 0 1.436-.128 2.05-.386a3.432 3.432 0 0 0 1.516-1.159c.396-.515.594-1.139.594-1.871v-.862H149.1c-.832 0-1.506.178-2.021.535-.495.356-.742.881-.742 1.575 0 .653.227 1.178.683 1.574.475.396 1.218.594 2.228.594ZM127.952 29.94V14.191h3.268v6.388h1.783l5.526-6.388h3.684l-6.685 7.517 6.982 8.23h-3.981l-5.526-6.685h-1.783v6.685h-3.268ZM110.357 29.94V14.191h3.268v11.142l7.577-11.142h3.119V29.94h-3.268V18.798l-7.576 11.141h-3.12ZM99.351 29.94V16.984h-5.2v-2.793h13.668v2.793h-5.2V29.94h-3.268ZM83.96 30.273c-1.13 0-2.1-.208-2.912-.624-.792-.436-1.396-1.03-1.812-1.783-.416-.753-.624-1.594-.624-2.525 0-1.565.465-2.724 1.396-3.477.931-.772 2.298-1.158 4.1-1.158h4.903v-.862c0-1.188-.268-2-.802-2.436-.515-.456-1.338-.684-2.466-.684-1.01 0-1.753.159-2.229.476a1.82 1.82 0 0 0-.832 1.307h-3.179c.06-.911.347-1.713.862-2.407.515-.693 1.238-1.238 2.169-1.634.95-.396 2.07-.594 3.357-.594 1.288 0 2.407.198 3.357.594.971.396 1.714 1.02 2.229 1.872.535.832.802 1.941.802 3.328v6.269c0 .832.01 1.565.03 2.199.02.613.069 1.218.148 1.812h-2.97c-.06-.456-.11-.842-.15-1.159a19.64 19.64 0 0 1-.03-1.188c-.376.732-1.03 1.366-1.96 1.901-.911.515-2.04.773-3.387.773Zm.891-2.853c.753 0 1.436-.128 2.05-.386a3.427 3.427 0 0 0 1.516-1.159c.396-.515.594-1.139.594-1.871v-.862h-4.308c-.832 0-1.506.178-2.02.535-.496.356-.744.881-.744 1.575 0 .653.228 1.178.684 1.574.475.396 1.218.594 2.228.594ZM62.332 30.266c-.158 0-.337-.01-.535-.03-.178 0-.346-.02-.505-.059v-3.09c.06.02.208.03.446.03.554 0 1-.238 1.337-.713.356-.476.614-1.298.772-2.466.179-1.189.268-2.853.268-4.992v-4.754h11.884V29.94h-3.268V16.985h-5.467v2.555c0 2.1-.109 3.853-.327 5.26-.198 1.386-.505 2.475-.92 3.267-.417.793-.932 1.357-1.546 1.694-.614.337-1.327.505-2.139.505ZM48.297 33.8v-3.53c-2.734 0-4.804-.693-6.21-2.08-1.406-1.386-2.11-3.377-2.11-5.971v-.595c0-2.476.704-4.387 2.11-5.734 1.406-1.347 3.476-2.02 6.21-2.02v-3.682h3.268v3.682c2.714 0 4.774.673 6.18 2.02 1.426 1.347 2.14 3.258 2.14 5.735v.594c0 2.595-.714 4.585-2.14 5.972-1.406 1.386-3.466 2.08-6.18 2.08v3.53h-3.268Zm8.26-11.581v-.595c0-1.644-.407-2.872-1.219-3.684-.792-.812-2.07-1.218-3.833-1.218v10.696c1.763 0 3.041-.426 3.833-1.277.812-.872 1.218-2.18 1.218-3.922Zm-13.252-.624v.624c0 1.743.406 3.05 1.218 3.922.813.851 2.09 1.277 3.833 1.277V16.722c-1.763 0-3.05.406-3.862 1.218-.793.812-1.189 2.03-1.189 3.655Z"/></svg>
