<svg width="40" height="40" viewBox="0 0 40 40" fill="none" xmlns="http://www.w3.org/2000/svg">
<path d="M23.1292 4C23.6795 4 24.2104 4.20405 24.619 4.5727L34.2475 13.2593C34.715 13.681 34.9818 14.2811 34.9818 14.9107V29.0645C34.9818 30.2928 33.986 31.2885 32.7577 31.2885H17.4744C17.1673 31.2885 16.9184 31.5375 16.9184 31.8445V37.2023C16.9184 37.7854 16.4457 38.2581 15.8626 38.2581C15.6017 38.2581 15.35 38.1615 15.1562 37.987L6.73627 30.4093C6.26764 29.9875 6.00001 29.3867 6 28.7562V13.9144C6 13.2865 6.2654 12.6878 6.73071 12.2662L15.2186 4.57582C15.6277 4.20523 16.16 4 16.7119 4H23.1292ZM8.80394 13.832C8.62556 13.9903 8.52347 14.2173 8.52347 14.4558V27.942C8.52347 28.4026 8.89687 28.776 9.35748 28.776H24.2067C24.6673 28.776 25.0407 28.4026 25.0407 27.942V14.4558C25.0407 14.2173 24.9386 13.9903 24.7603 13.832L17.3356 7.24404C17.0198 6.9638 16.5444 6.9638 16.2286 7.24404L8.80394 13.832Z" fill="#4DBC17"></path>
</svg>
