<svg width="162" height="191" viewBox="0 0 162 191" fill="none" xmlns="http://www.w3.org/2000/svg">
<path d="M95.3996 0.143799C98.4647 0.143799 101.421 1.28023 103.697 3.33341L157.322 51.7129C159.926 54.0616 161.412 57.4036 161.412 60.9098V139.738C161.412 146.579 155.866 152.125 149.025 152.125H63.9057C62.1956 152.125 60.8092 153.511 60.8091 155.222V185.061C60.8089 188.309 58.1763 190.941 54.9288 190.942C53.4761 190.942 52.0743 190.404 50.9945 189.432L4.10061 147.228C1.49059 144.879 5.36738e-05 141.533 0 138.021V55.3614C0 51.8644 1.47812 48.5299 4.06961 46.1819L51.3423 3.3508C53.6204 1.28682 56.5851 0.143799 59.6592 0.143799H95.3996ZM15.6163 54.9022C14.6228 55.7838 14.0543 57.0484 14.0543 58.3766V133.487C14.0543 136.052 16.1339 138.132 18.6992 138.132H101.401C103.966 138.132 106.046 136.052 106.046 133.487V58.3766C106.046 57.0484 105.477 55.7838 104.484 54.9022L63.1329 18.2112C61.374 16.6505 58.7261 16.6505 56.9672 18.2112L15.6163 54.9022Z" fill="#4DBC17"></path>
</svg>
